Go Goa Gone 2013 Hindi Movies PDVD Rip Good Quality Sample Included ~ Γÿ╗rDXΓÿ╗

Screen Shots :
 
http://myimghosting.serveftp.com/13/GoGoaGonePD.html
 
http://myimghost.cwahi.net/GoGoaGonePD.html
 
http://users2.jabry.com/myimghost/GoGoaGone/GoGoaGone.jpg

Format                                   : AVI
Format/Info                              : Audio Video Interleave
File size                                : 689 MiB
Duration                                 : 1h 48mn
Overall bit rate                         : 886 Kbps
Writing library                          : MPlayer

Video
ID                                       : 0
Format                                   : MPEG-4 Visual
Format profile                           : Advanced Simple@L5
Format settings, BVOP                    : 1
Format settings, QPel                    : No
Format settings, GMC                     : No warppoints
Format settings, Matrix                  : Default (H.263)
Muxing mode                              : Packed bitstream
Codec ID                                 : XVID
Codec ID/Hint                            : XviD
Duration                                 : 1h 48mn
Bit rate                                 : 753 Kbps
Width                                    : 640 pixels
Height                                   : 256 pixels
Display aspect ratio                     : 2.500
Frame rate                               : 23.976 fps
Color space                              : YUV
Chroma subsampling                       : 4:2:0
Bit depth                                : 8 bits
Scan type                                : Progressive
Compression mode                         : Lossy
Bits/(Pixel*Frame)                       : 0.192
Stream size                              : 585 MiB (85%)
Writing library                          : XviD 1.2.1 (UTC 2008-12-04)

Audio
ID                                       : 1
Format                                   : AC-3
Format/Info                              : Audio Coding 3
Mode extension                           : CM (complete main)
Format settings, Endianness              : Big
Codec ID                                 : 2000
Duration                                 : 1h 48mn
Bit rate mode                            : Constant
Bit rate                                 : 128 Kbps
Channel(s)                               : 2 channels
Channel positions                        : Front: L R
Sampling rate                            : 48.0 KHz
Bit depth                                : 16 bits
Compression mode                         : Lossy
Stream size                              : 99.5 MiB (14%)
Alignment                                : Split accross interleaves
Interleave, duration                     : 500 ms (11.99 video frames)
Interleave, preload duration             : 500 ms